<svg xmlns="http://www.w3.org/2000/svg" width="320" height="493" viewBox="0 0 320 493">
    <g fill="none" fill-rule="evenodd">
        <path fill="#FFFAED" d="M310 0c5.522 0 10 4.477 10 10v356.479l-.181-.002c-7.695 0-13.94 6.491-14 14.522H13.992c-.255-7.776-6.422-14-13.992-14V10C0 4.477 4.477 0 10 0h300z"/>
        <path fill="#FFF2CE" d="M20 305H297V351H20z" transform="matrix(1 0 0 -1 0 656)"/>
        <path fill="#FFF2CE" d="M20 213H297V259H20z" transform="matrix(1 0 0 -1 0 472)"/>
        <path fill="#FFF2CE" d="M20 122H297V168H20z" transform="matrix(1 0 0 -1 0 290)"/>
        <path fill="#FEBF01" d="M320 394v89c0 5.43-4.327 9.848-9.72 9.996L310 493H10c-5.43 0-9.848-4.327-9.996-9.72L0 483v-88c7.732 0 14-6.268 14-14h292.035c.513 7.265 6.57 13 13.965 13z"/>
        <path fill="#282828" fill-rule="nonzero" d="M26 184.564h1.248v-4.368c0-.792-.108-1.932-.168-2.736h.048l.696 2.04 1.548 4.212h.864l1.536-4.212.708-2.04h.048l-.067.755c-.058.672-.113 1.415-.113 1.981v4.368h1.296v-8.832h-1.608l-1.596 4.464c-.204.588-.372 1.188-.576 1.788h-.06c-.204-.6-.384-1.2-.588-1.788l-1.62-4.464H26v8.832zm12.48.156c1.632 0 3.108-1.26 3.108-3.444 0-2.208-1.476-3.48-3.108-3.48-1.632 0-3.108 1.272-3.108 3.48 0 2.184 1.476 3.444 3.108 3.444zm0-1.128c-1.032 0-1.68-.924-1.68-2.316 0-1.404.648-2.34 1.68-2.34 1.044 0 1.692.936 1.692 2.34 0 1.392-.648 2.316-1.692 2.316zm7.008 1.128c.744 0 1.428-.396 1.92-.9h.036l.12.744h1.128V175h-1.38v2.448l.06 1.092c-.54-.456-1.02-.744-1.776-.744-1.476 0-2.832 1.332-2.832 3.48 0 2.184 1.068 3.444 2.724 3.444zm.324-1.14c-1.032 0-1.62-.828-1.62-2.328 0-1.428.744-2.304 1.668-2.304.492 0 .96.156 1.452.6v3.228c-.48.552-.948.804-1.5.804zm7.704 1.14c.864 0 1.62-.288 2.232-.696l-.48-.876c-.48.312-.984.492-1.572.492-1.14 0-1.932-.756-2.04-2.016h4.284c.036-.156.06-.432.06-.696 0-1.872-.936-3.132-2.688-3.132-1.548 0-3.012 1.332-3.012 3.48 0 2.172 1.428 3.444 3.216 3.444zm-1.872-4.044c.132-1.164.864-1.8 1.692-1.8.96 0 1.476.66 1.476 1.8h-3.168zM29.84 139.156c2.268 0 3.852-1.764 3.852-4.608 0-2.844-1.584-4.548-3.852-4.548S26 131.704 26 134.548c0 2.844 1.572 4.608 3.84 4.608zm0-1.212c-1.464 0-2.412-1.32-2.412-3.396 0-2.076.948-3.336 2.412-3.336s2.424 1.26 2.424 3.336c0 2.076-.96 3.396-2.424 3.396zm8.208 1.212c-1.212 0-2.34-.48-3.144-1.296l.816-.96c.636.636 1.5 1.044 2.352 1.044 1.068 0 1.668-.504 1.668-1.248 0-.754-.527-1.022-1.266-1.35l-1.374-.594c-.852-.36-1.8-1.032-1.8-2.316 0-1.392 1.224-2.436 2.904-2.436 1.032 0 2.004.432 2.676 1.116l-.732.888c-.552-.492-1.164-.792-1.944-.792-.9 0-1.488.432-1.488 1.14 0 .756.708 1.044 1.428 1.332l1.212.516c1.044.444 1.8 1.092 1.8 2.388 0 1.416-1.176 2.568-3.108 2.568zM28.496 319.22l.36-1.188c.288-.96.564-1.932.816-2.94h.048c.276.996.54 1.98.84 2.94l.348 1.188h-2.412zm3.492 3.612h1.476L30.536 314h-1.608L26 322.832h1.416l.756-2.52h3.072l.744 2.52zm5.208.156c.756 0 1.536-.276 2.136-.816l-.564-.912c-.396.336-.888.6-1.44.6-1.104 0-1.86-.924-1.86-2.316 0-1.404.792-2.34 1.896-2.34.456 0 .828.192 1.188.516l.684-.9c-.48-.42-1.092-.756-1.932-.756-1.74 0-3.264 1.272-3.264 3.48 0 2.184 1.368 3.444 3.156 3.444zm6.204 0c.756 0 1.536-.276 2.136-.816l-.564-.912c-.396.336-.888.6-1.44.6-1.104 0-1.86-.924-1.86-2.316 0-1.404.792-2.34 1.896-2.34.456 0 .828.192 1.188.516l.684-.9c-.48-.42-1.092-.756-1.932-.756-1.74 0-3.264 1.272-3.264 3.48 0 2.184 1.368 3.444 3.156 3.444zm5.448 0c.912 0 1.56-.456 2.16-1.152h.036l.108.996h1.128v-6.6H50.9v4.584c-.552.696-.972.984-1.584.984-.78 0-1.104-.444-1.104-1.584v-3.984h-1.38v4.152c0 1.68.612 2.604 2.016 2.604zm5.508-.156h1.368v-4.116c.42-1.044 1.068-1.416 1.608-1.416.264 0 .432.036.66.108l.252-1.2c-.204-.096-.42-.144-.744-.144-.708 0-1.404.504-1.872 1.356h-.036l-.108-1.188h-1.128v6.6zm6.468.156c.792 0 1.5-.396 2.1-.912h.036l.12.756h1.128v-3.972c0-1.752-.756-2.796-2.4-2.796-1.056 0-1.98.432-2.664.864l.516.936c.564-.36 1.212-.672 1.908-.672.972 0 1.248.672 1.26 1.44-2.748.3-3.948 1.032-3.948 2.448 0 1.164.804 1.908 1.944 1.908zm.42-1.092c-.588 0-1.032-.264-1.032-.912 0-.744.66-1.236 2.616-1.476v1.62c-.54.492-1.008.768-1.584.768zm7.608 1.092c.756 0 1.536-.276 2.136-.816l-.564-.912c-.396.336-.888.6-1.44.6-1.104 0-1.86-.924-1.86-2.316 0-1.404.792-2.34 1.896-2.34.456 0 .828.192 1.188.516l.684-.9c-.48-.42-1.092-.756-1.932-.756-1.74 0-3.264 1.272-3.264 3.48 0 2.184 1.368 3.444 3.156 3.444zm8.844-6.756l-2.424 6.996c-.516 1.416-1.212 2.364-2.604 2.364-.336 0-.6-.048-.828-.132l.264-1.08c.12.036.312.096.48.096.72 0 1.14-.528 1.38-1.236l.132-.456-2.616-6.552h1.416l1.224 3.396.447 1.394.153.466h.06l.516-1.86 1.056-3.396h1.344z"/>
        
        
        
        <path stroke="#FEBF01" stroke-width="5" d="M20 66.5L297 66.5"/>
        
        <path stroke="#464646" d="M20 121.5L297 121.5M20 213.5L297 213.5M20 167.5L297 167.5M20 259.5L297 259.5M20 305.5L297 305.5"/>
        <path stroke="#464646" stroke-width="2" d="M20 351.5L297 351.5"/>
        <path stroke="#FFF" stroke-dasharray="8 3" stroke-width="2" d="M14 381.5L306 381.5"/>
        <path fill="#282828" fill-rule="nonzero" d="M29.756 231l1.164-4.908c.144-.696.288-1.356.408-2.028h.06c.12.672.252 1.332.408 2.028L32.984 231H34.7l1.74-8.832h-1.332l-.84 4.596c-.144.924-.3 1.872-.444 2.832h-.06c-.204-.96-.396-1.908-.6-2.832l-1.152-4.596h-1.224l-1.14 4.596c-.204.936-.408 1.884-.6 2.832H29l-.468-2.832-.828-4.596h-1.44L28.076 231h1.68zm9.528 0v-3.348h1.332c1.92 0 3.324-.888 3.324-2.82 0-1.992-1.404-2.664-3.372-2.664h-2.676V231h1.392zm1.2-4.464h-1.2v-3.252h1.152c1.404 0 2.136.384 2.136 1.548 0 1.164-.672 1.704-2.088 1.704zm6.42 4.464v-4.368c0-.792-.108-1.932-.168-2.736h.048l.696 2.04 1.548 4.212h.864l1.536-4.212.708-2.04h.048c-.072.804-.18 1.944-.18 2.736V231H53.3v-8.832h-1.608l-1.596 4.464c-.204.588-.372 1.188-.576 1.788h-.06c-.204-.6-.384-1.2-.588-1.788l-1.62-4.464h-1.596V231h1.248zM28.412 277v-4.368c0-.792-.108-1.932-.168-2.736h.048l.696 2.04 1.548 4.212h.864l1.536-4.212.708-2.04h.048c-.072.804-.18 1.944-.18 2.736V277h1.296v-8.832H33.2l-1.596 4.464c-.204.588-.372 1.188-.576 1.788h-.06c-.204-.6-.384-1.2-.588-1.788l-1.62-4.464h-1.596V277h1.248zm10.152.156c.792 0 1.5-.396 2.1-.912h.036l.12.756h1.128v-3.972c0-1.752-.756-2.796-2.4-2.796-1.056 0-1.98.432-2.664.864l.516.936c.564-.36 1.212-.672 1.908-.672.972 0 1.248.672 1.26 1.44-2.748.3-3.948 1.032-3.948 2.448 0 1.164.804 1.908 1.944 1.908zm.42-1.092c-.588 0-1.032-.264-1.032-.912 0-.744.66-1.236 2.616-1.476v1.62c-.54.492-1.008.768-1.584.768zm5.508.936l.768-1.392c.204-.408.408-.804.612-1.176h.06c.24.372.468.78.684 1.176L47.48 277h1.5l-2.124-3.288 1.98-3.312h-1.44l-.696 1.332c-.18.36-.372.732-.552 1.104H46.1c-.216-.372-.432-.744-.624-1.104l-.792-1.332h-1.488l1.98 3.156L43.04 277h1.452zm5.784 2.16l3.336-11.736h-.96l-3.336 11.736h.96zm4.992-2.16l.756-2.52h3.072l.744 2.52h1.476l-2.928-8.832H56.78L53.852 277h1.416zm3.492-3.612h-2.412l.36-1.188c.288-.96.564-1.932.816-2.94h.048c.276.996.54 1.98.84 2.94l.348 1.188zM65.408 277l2.28-6.6h-1.344l-1.128 3.552c-.18.648-.384 1.32-.576 1.968h-.048c-.192-.648-.396-1.32-.576-1.968l-1.128-3.552h-1.416l2.34 6.6h1.596zm5.748 2.964c2.112 0 3.456-1.032 3.456-2.304 0-1.128-.816-1.608-2.376-1.608h-1.212c-.84 0-1.104-.252-1.104-.648 0-.312.144-.504.36-.696.288.132.624.204.924.204 1.38 0 2.472-.828 2.472-2.268 0-.504-.18-.948-.432-1.212h1.26V270.4h-2.34c-.252-.096-.588-.168-.96-.168-1.368 0-2.556.876-2.556 2.376 0 .78.42 1.404.864 1.752v.048c-.36.264-.732.708-.732 1.224 0 .54.264.888.6 1.092v.06c-.612.372-.96.888-.96 1.44 0 1.152 1.152 1.74 2.736 1.74zm.048-5.94c-.684 0-1.248-.54-1.248-1.416 0-.9.552-1.404 1.248-1.404s1.248.516 1.248 1.404c0 .876-.564 1.416-1.248 1.416zm.156 5.028c-1.092 0-1.764-.384-1.764-1.032 0-.336.168-.672.564-.96.276.06.576.096.888.096h.996c.804 0 1.236.168 1.236.72 0 .612-.768 1.176-1.92 1.176zm9.816-1.896c1.932 0 3.108-1.152 3.108-2.568 0-1.296-.756-1.944-1.8-2.388l-1.212-.516c-.72-.288-1.428-.576-1.428-1.332 0-.708.588-1.14 1.488-1.14.78 0 1.392.3 1.944.792l.732-.888c-.672-.684-1.644-1.116-2.676-1.116-1.68 0-2.904 1.044-2.904 2.436 0 1.284.948 1.956 1.8 2.316l1.224.528c.816.36 1.416.612 1.416 1.416 0 .744-.6 1.248-1.668 1.248-.852 0-1.716-.408-2.352-1.044l-.816.96c.804.816 1.932 1.296 3.144 1.296zm6.024 2.52v-2.136l-.036-1.128c.564.48 1.152.744 1.74.744 1.488 0 2.844-1.296 2.844-3.564 0-2.028-.936-3.36-2.616-3.36-.732 0-1.452.408-2.028.888h-.036l-.108-.72h-1.128v9.276H87.2zm1.44-3.66c-.408 0-.924-.156-1.44-.6v-3.228c.564-.54 1.056-.804 1.572-.804 1.104 0 1.548.852 1.548 2.232 0 1.548-.72 2.4-1.68 2.4zm7.5 1.14c.864 0 1.62-.288 2.232-.696l-.48-.876c-.48.312-.984.492-1.572.492-1.14 0-1.932-.756-2.04-2.016h4.284c.036-.156.06-.432.06-.696 0-1.872-.936-3.132-2.688-3.132-1.548 0-3.012 1.332-3.012 3.48 0 2.172 1.428 3.444 3.216 3.444zm1.296-4.044h-3.168c.132-1.164.864-1.8 1.692-1.8.96 0 1.476.66 1.476 1.8zm5.484 4.044c.864 0 1.62-.288 2.232-.696l-.48-.876c-.48.312-.984.492-1.572.492-1.14 0-1.932-.756-2.04-2.016h4.284c.036-.156.06-.432.06-.696 0-1.872-.936-3.132-2.688-3.132-1.548 0-3.012 1.332-3.012 3.48 0 2.172 1.428 3.444 3.216 3.444zm1.296-4.044h-3.168c.132-1.164.864-1.8 1.692-1.8.96 0 1.476.66 1.476 1.8zm5.016 4.044c.744 0 1.428-.396 1.92-.9h.036l.12.744h1.128v-9.564h-1.38v2.448l.06 1.092c-.54-.456-1.02-.744-1.776-.744-1.476 0-2.832 1.332-2.832 3.48 0 2.184 1.068 3.444 2.724 3.444zm.324-1.14c-1.032 0-1.62-.828-1.62-2.328 0-1.428.744-2.304 1.668-2.304.492 0 .96.156 1.452.6v3.228c-.48.552-.948.804-1.5.804z"/>
        <text fill="#070707" font-family="NotoSansKR-Medium, Noto Sans KR Medium" font-size="14" letter-spacing="-.117">
            <tspan x="23" y="440">Press </tspan>
        </text>
        <text fill="#070707" font-family="NotoSansKR-Medium, Noto Sans KR Medium" font-size="14" letter-spacing="-.117">
            <tspan x="113" y="440">key </tspan>
        </text>
        <text fill="#070707" font-family="NotoSansKR-Medium, Noto Sans KR Medium" font-size="13" letter-spacing="-.108">
            <tspan x="23" y="464">for the next journey …</tspan>
        </text>
        <rect width="36.81" height="31.553" x="68" y="412.272" fill="#FA0808" rx="4" transform="matrix(1 0 0 -1 0 856.097)"/>
        <path fill="#FFF" fill-rule="nonzero" d="M73.107 425.312h4.83v-1.5h-3.04v-1.58h2.49v-1.5h-2.49v-1.38h2.93v-1.48h-4.72v7.44zm8.527.14c1.8 0 2.84-1.09 2.84-2.33 0-1.05-.55-1.67-1.47-2.04l-1.353-.539c-.429-.179-.707-.346-.707-.661 0-.4.34-.62.89-.62.58 0 1.04.2 1.53.57l.89-1.12c-.65-.65-1.56-.98-2.42-.98-1.58 0-2.7 1-2.7 2.25 0 1.016.647 1.652 1.373 1.981l1.491.63c.403.179.646.338.646.669 0 .4-.31.65-.97.65-.59 0-1.28-.31-1.81-.76l-1.01 1.23c.77.71 1.81 1.07 2.78 1.07zm7.147 0c-1.89 0-3.49-1.3-3.49-3.82 0-2.48 1.66-3.9 3.55-3.9.97 0 1.75.45 2.26.97l-.94 1.14c-.37-.34-.76-.58-1.29-.58-.96 0-1.75.86-1.75 2.31 0 1.48.68 2.34 1.73 2.34.59 0 1.07-.3 1.42-.68l.94 1.12c-.63.73-1.46 1.1-2.43 1.1z"/>
        <path stroke="#FFF" stroke-linecap="round" stroke-linejoin="round" d="M105.974 412.882l4.962-2.882M108.36 415.706l6.974-.549M58 409l4 5M62 407l3 7"/>
    </g>
</svg>